<?xml version="1.0" encoding="UTF-8" standalone="no"?>
<!DOCTYPE svg PUBLIC "-//W3C//DTD SVG 1.1//EN"
 "http://www.w3.org/Graphics/SVG/1.1/DTD/svg11.dtd">
<!-- Generated by graphviz version 2.43.0 (0)
 -->
<!-- Title: states Pages: 1 -->
<svg width="892pt" height="132pt"
 viewBox="0.00 0.00 892.00 132.00" xmlns="http://www.w3.org/2000/svg" xmlns:xlink="http://www.w3.org/1999/xlink">
<g id="graph0" class="graph" transform="scale(1 1) rotate(0) translate(4 128)">
<title>states</title>
<!-- NEW -->
<g id="node1" class="node">
<title>NEW</title>
<path fill="none" stroke="black" d="M42,-36C42,-36 12,-36 12,-36 6,-36 0,-30 0,-24 0,-24 0,-12 0,-12 0,-6 6,0 12,0 12,0 42,0 42,0 48,0 54,-6 54,-12 54,-12 54,-24 54,-24 54,-30 48,-36 42,-36"/>
<text text-anchor="middle" x="27" y="-15.2" font-family="Helvetica,sans-Serif" font-size="11.00">NEW</text>
</g>
<!-- CONNECTING -->
<g id="node2" class="node">
<title>CONNECTING</title>
<path fill="none" stroke="black" d="M245,-36C245,-36 175,-36 175,-36 169,-36 163,-30 163,-24 163,-24 163,-12 163,-12 163,-6 169,0 175,0 175,0 245,0 245,0 251,0 257,-6 257,-12 257,-12 257,-24 257,-24 257,-30 251,-36 245,-36"/>
<text text-anchor="middle" x="210" y="-15.2" font-family="Helvetica,sans-Serif" font-size="11.00">CONNECTING</text>
</g>
<!-- NEW&#45;&gt;CONNECTING -->
<g id="edge1" class="edge">
<title>NEW&#45;&gt;CONNECTING</title>
<path fill="none" stroke="black" d="M54.32,-18C79.89,-18 119.54,-18 152.29,-18"/>
<polygon fill="black" stroke="black" points="152.66,-21.5 162.66,-18 152.66,-14.5 152.66,-21.5"/>
<text text-anchor="middle" x="108.5" y="-21" font-family="Helvetica,sans-Serif" font-size="10.00">connect / accept</text>
</g>
<!-- CONNECTED -->
<g id="node3" class="node">
<title>CONNECTED</title>
<path fill="none" stroke="black" d="M468,-66C468,-66 402,-66 402,-66 396,-66 390,-60 390,-54 390,-54 390,-42 390,-42 390,-36 396,-30 402,-30 402,-30 468,-30 468,-30 474,-30 480,-36 480,-42 480,-42 480,-54 480,-54 480,-60 474,-66 468,-66"/>
<text text-anchor="middle" x="435" y="-45.2" font-family="Helvetica,sans-Serif" font-size="11.00">CONNECTED</text>
</g>
<!-- CONNECTING&#45;&gt;CONNECTED -->
<g id="edge2" class="edge">
<title>CONNECTING&#45;&gt;CONNECTED</title>
<path fill="none" stroke="black" d="M257.21,-24.22C292.77,-29 342.02,-35.63 379.51,-40.67"/>
<polygon fill="black" stroke="black" points="379.38,-44.18 389.75,-42.05 380.31,-37.25 379.38,-44.18"/>
<text text-anchor="middle" x="323.5" y="-42" font-family="Helvetica,sans-Serif" font-size="10.00">CONNECT_ACCEPT</text>
</g>
<!-- CLOSED -->
<g id="node5" class="node">
<title>CLOSED</title>
<path fill="none" stroke="black" d="M872,-66C872,-66 832,-66 832,-66 826,-66 820,-60 820,-54 820,-54 820,-42 820,-42 820,-36 826,-30 832,-30 832,-30 872,-30 872,-30 878,-30 884,-36 884,-42 884,-42 884,-54 884,-54 884,-60 878,-66 872,-66"/>
<text text-anchor="middle" x="852" y="-45.2" font-family="Helvetica,sans-Serif" font-size="11.00">CLOSED</text>
</g>
<!-- CONNECTING&#45;&gt;CLOSED -->
<g id="edge6" class="edge">
<title>CONNECTING&#45;&gt;CLOSED</title>
<path fill="none" stroke="black" d="M257.19,-17.67C310.8,-17.49 401.84,-17.78 480,-21 623.35,-26.91 658.94,-33.05 802,-44 804.53,-44.19 807.14,-44.4 809.76,-44.6"/>
<polygon fill="black" stroke="black" points="809.65,-48.11 819.9,-45.41 810.21,-41.13 809.65,-48.11"/>
<text text-anchor="middle" x="542" y="-29" font-family="Helvetica,sans-Serif" font-size="10.00">connect timeout</text>
</g>
<!-- CLOSING -->
<g id="node4" class="node">
<title>CLOSING</title>
<path fill="none" stroke="black" d="M671,-124C671,-124 627,-124 627,-124 621,-124 615,-118 615,-112 615,-112 615,-100 615,-100 615,-94 621,-88 627,-88 627,-88 671,-88 671,-88 677,-88 683,-94 683,-100 683,-100 683,-112 683,-112 683,-118 677,-124 671,-124"/>
<text text-anchor="middle" x="649" y="-103.2" font-family="Helvetica,sans-Serif" font-size="11.00">CLOSING</text>
</g>
<!-- CONNECTED&#45;&gt;CLOSING -->
<g id="edge3" class="edge">
<title>CONNECTED&#45;&gt;CLOSING</title>
<path fill="none" stroke="black" d="M480.18,-60.09C516.9,-70.13 568.82,-84.34 605.16,-94.28"/>
<polygon fill="black" stroke="black" points="604.4,-97.7 614.97,-96.96 606.25,-90.95 604.4,-97.7"/>
<text text-anchor="middle" x="542" y="-91" font-family="Helvetica,sans-Serif" font-size="10.00">netchan_disconnect</text>
</g>
<!-- CONNECTED&#45;&gt;CLOSED -->
<g id="edge5" class="edge">
<title>CONNECTED&#45;&gt;CLOSED</title>
<path fill="none" stroke="black" d="M480.02,-48C560.61,-48 730.8,-48 809.49,-48"/>
<polygon fill="black" stroke="black" points="809.96,-51.5 819.96,-48 809.96,-44.5 809.96,-51.5"/>
<text text-anchor="middle" x="649" y="-62" font-family="Helvetica,sans-Serif" font-size="10.00">idle timeout /</text>
<text text-anchor="middle" x="649" y="-51" font-family="Helvetica,sans-Serif" font-size="10.00">peer DISCONNECT</text>
</g>
<!-- CLOSING&#45;&gt;CLOSED -->
<g id="edge4" class="edge">
<title>CLOSING&#45;&gt;CLOSED</title>
<path fill="none" stroke="black" d="M683.19,-96.42C717.84,-86.42 772.26,-70.72 809.67,-59.93"/>
<polygon fill="black" stroke="black" points="811.11,-63.15 819.75,-57.02 809.17,-56.43 811.11,-63.15"/>
<text text-anchor="middle" x="757" y="-90" font-family="Helvetica,sans-Serif" font-size="10.00">peer DISCONNECT</text>
</g>
</g>
</svg>
